<?xml version="1.0" standalone="no"?><!DOCTYPE svg PUBLIC "-//W3C//DTD SVG 1.1//EN" "http://www.w3.org/Graphics/SVG/1.1/DTD/svg11.dtd"><svg t="1611914795455" class="icon" viewBox="0 0 1024 1024" version="1.1" xmlns="http://www.w3.org/2000/svg" p-id="7263" xmlns:xlink="http://www.w3.org/1999/xlink" width="64" height="64"><defs><style type="text/css"></style></defs><path d="M707.910948 259.388678l91.052762-130.717134-50.761104-33.895995L648.810922 237.46332c-41.478693-12.288884-87.363743-19.631106-137.814786-19.631106-292.827255 0-448.087365 277.695626-448.087365 277.695626s94.688569 139.408073 260.782422 208.68488L193.338357 891.349841l50.761104 33.897018 139.511427-200.285582c39.33589 10.891048 81.872682 17.397229 127.385249 17.397229 280.467763 0 448.125227-246.829642 448.125227-246.829642S880.407628 336.848864 707.910948 259.388678zM349.59619 480.341976c0-87.117127 72.386634-157.756977 161.677263-157.756977 24.313755 0 47.367821 5.247514 68.054979 14.629185l-55.680137 79.935564c-4.101411-0.733711-8.318456-1.136893-12.633738-1.136893-39.09132 0-70.781066 31.432896-70.781066 70.197782 0 13.231349 3.697205 25.605168 10.115382 36.169781l-50.398854 72.353888C368.935654 565.990658 349.59619 525.369495 349.59619 480.341976zM511.273453 638.09793c-21.002336 0-41.068348-3.910053-59.478649-11.022031l49.678446-71.319325c3.122107 0.417509 6.303566 0.652869 9.541307 0.652869 39.092343 0 70.780043-31.432896 70.780043-70.197782 0-12.124132-3.099594-23.530926-8.555863-33.483602l55.94108-80.310094c27.14115 28.218692 43.771923 66.176189 43.771923 107.922988C672.948669 567.462173 600.563058 638.09793 511.273453 638.09793z" p-id="7264"></path></svg>